<svg width="14" height="14" viewBox="0 0 14 14" fill="none" xmlns="http://www.w3.org/2000/svg">
    <path d="M3.04525 4.15603C3.11025 4.22103 3.181 4.25353 3.2575 4.25353C3.334 4.25353 3.4045 4.22103 3.469 4.15603L4.2565 3.36853C4.322 3.30653 4.35475 3.23428 4.35475 3.15178C4.35475 3.06928 4.32225 2.99528 4.25725 2.92978L3.46975 2.14228C3.40375 2.07728 3.33275 2.04478 3.25675 2.04478C3.18075 2.04478 3.11025 2.07728 3.04525 2.14228L2.25775 2.92978C2.19275 2.99178 2.16025 3.06403 2.16025 3.14653C2.16025 3.22903 2.19275 3.30303 2.25775 3.36853L3.04525 4.15603ZM1.462 8.32678C1.1165 8.32678 0.82825 8.21128 0.59725 7.98028C0.36625 7.74928 0.2505 7.46103 0.25 7.11553V1.28803C0.25 0.943032 0.36575 0.655032 0.59725 0.424032C0.82875 0.193032 1.11675 0.0772822 1.46125 0.0767822H12.5387C12.8837 0.0767822 13.1718 0.192532 13.4028 0.424032C13.6338 0.655532 13.7495 0.943532 13.75 1.28803V7.11553C13.75 7.46053 13.6343 7.74878 13.4028 7.98028C13.1713 8.21178 12.883 8.32728 12.538 8.32678H10.6877C10.5842 8.32678 10.4992 8.29078 10.4327 8.21878C10.3663 8.14678 10.3325 8.05753 10.3315 7.95103C10.3305 7.84453 10.3665 7.75553 10.4395 7.68403C10.5125 7.61253 10.6015 7.57678 10.7065 7.57678H12.538C12.6535 7.57678 12.7595 7.52878 12.856 7.43278C12.9525 7.33678 13.0005 7.23103 13 7.11553V1.28803C13 1.17303 12.952 1.06728 12.856 0.970782C12.76 0.874282 12.6543 0.826282 12.5387 0.826782H1.46125C1.34625 0.826782 1.2405 0.874782 1.144 0.970782C1.0475 1.06678 0.9995 1.17278 1 1.28878V7.11553C1 7.23053 1.048 7.33628 1.144 7.43278C1.24 7.52928 1.34575 7.57728 1.46125 7.57678H3.2935C3.3995 7.57678 3.4885 7.61278 3.5605 7.68478C3.6325 7.75678 3.6685 7.84603 3.6685 7.95253C3.6685 8.05903 3.6325 8.14803 3.5605 8.21953C3.4885 8.29103 3.3995 8.32678 3.2935 8.32678H1.462ZM10.3735 3.45178C10.5815 3.45178 10.7588 3.37928 10.9053 3.23428C11.0518 3.08928 11.125 2.91253 11.125 2.70403C11.125 2.49553 11.0522 2.31803 10.9067 2.17153C10.7612 2.02503 10.5845 1.95178 10.3765 1.95178C10.1685 1.95178 9.99125 2.02453 9.84475 2.17003C9.69825 2.31553 9.625 2.49228 9.625 2.70028C9.625 2.90828 9.69775 3.08553 9.84325 3.23203C9.98875 3.37853 10.1655 3.45178 10.3735 3.45178ZM3.106 13.9233C2.934 13.9233 2.79 13.865 2.674 13.7485C2.558 13.632 2.5 13.4885 2.5 13.318V12.868C2.5 12.5725 2.581 12.298 2.743 12.0445C2.905 11.791 3.1235 11.604 3.3985 11.4835C3.9725 11.225 4.5595 11.0285 5.1595 10.894C5.7595 10.7595 6.373 10.6923 7 10.6923C7.627 10.6923 8.2405 10.7593 8.8405 10.8933C9.4405 11.0273 10.0275 11.2238 10.6015 11.4828C10.8765 11.6028 11.095 11.7895 11.257 12.043C11.419 12.297 11.5 12.5718 11.5 12.8673V13.3173C11.5 13.4888 11.442 13.6328 11.326 13.7493C11.21 13.8658 11.066 13.9238 10.894 13.9233H3.106ZM3.25 13.1733H10.75V12.8673C10.75 12.7173 10.7063 12.5798 10.6188 12.4548C10.5313 12.3298 10.4187 12.236 10.2812 12.1735C9.75625 11.936 9.21875 11.7548 8.66875 11.6298C8.11875 11.5048 7.5625 11.4423 7 11.4423C6.4375 11.4423 5.88125 11.5048 5.33125 11.6298C4.78125 11.7548 4.24375 11.936 3.71875 12.1735C3.58125 12.236 3.46875 12.3298 3.38125 12.4548C3.29375 12.5798 3.25 12.7173 3.25 12.8673V13.1733ZM7 9.65353C6.477 9.65353 6.03375 9.47178 5.67025 9.10828C5.30675 8.74528 5.125 8.30203 5.125 7.77853C5.125 7.25503 5.30675 6.81178 5.67025 6.44878C6.03375 6.08578 6.477 5.90403 7 5.90353C7.523 5.90303 7.96625 6.08478 8.32975 6.44878C8.69325 6.81278 8.875 7.25603 8.875 7.77853C8.875 8.30103 8.69325 8.74428 8.32975 9.10828C7.96625 9.47228 7.523 9.65403 7 9.65353ZM7 8.90353C7.3125 8.90353 7.57825 8.79428 7.79725 8.57578C8.01625 8.35728 8.1255 8.09153 8.125 7.77853C8.1245 7.46553 8.01525 7.20003 7.79725 6.98203C7.57925 6.76403 7.3135 6.65453 7 6.65353C6.6865 6.65253 6.421 6.76203 6.2035 6.98203C5.986 7.20203 5.8765 7.46753 5.875 7.77853C5.8735 8.08953 5.983 8.35528 6.2035 8.57578C6.424 8.79628 6.6895 8.90553 7 8.90353Z" fill="#0143BD"/>
</svg>
