<svg width="17" height="17" viewBox="0 0 17 17" fill="none" xmlns="http://www.w3.org/2000/svg">
    <path d="M13.4688 13.0932C13.5187 13.1431 13.5467 13.2107 13.5467 13.2812C13.5467 13.3516 13.5187 13.4192 13.4688 13.4691C13.419 13.5189 13.3514 13.5469 13.2809 13.5469C13.2104 13.5469 13.1428 13.5189 13.093 13.4691L8.49966 8.87576L3.90634 13.4691C3.8565 13.5189 3.7889 13.5469 3.71841 13.5469C3.64792 13.5469 3.58032 13.5189 3.53048 13.4691C3.48064 13.4192 3.45264 13.3516 3.45264 13.2812C3.45264 13.2107 3.48064 13.1431 3.53048 13.0932L8.1238 8.4999L3.53048 3.90658C3.48064 3.85674 3.45264 3.78914 3.45264 3.71865C3.45264 3.64817 3.48064 3.58057 3.53048 3.53072C3.58032 3.48088 3.64792 3.45288 3.71841 3.45288C3.7889 3.45288 3.8565 3.48088 3.90634 3.53072L8.49966 8.12404L13.093 3.53072C13.1177 3.50604 13.147 3.48647 13.1792 3.47311C13.2114 3.45976 13.246 3.45288 13.2809 3.45288C13.3158 3.45288 13.3504 3.45976 13.3826 3.47311C13.4149 3.48647 13.4442 3.50604 13.4688 3.53072C13.4935 3.5554 13.5131 3.5847 13.5265 3.61695C13.5398 3.64919 13.5467 3.68375 13.5467 3.71865C13.5467 3.75356 13.5398 3.78812 13.5265 3.82036C13.5131 3.85261 13.4935 3.8819 13.4688 3.90658L8.87552 8.4999L13.4688 13.0932Z" fill="black"/>
</svg>
