<svg width="20" height="18" viewBox="0 0 20 18" fill="none" xmlns="http://www.w3.org/2000/svg">
    <path d="M8.75008 17.3333C4.37783 17.3333 0.833415 13.6023 0.833415 8.99996C0.833415 4.39759 4.37783 0.666626 8.75008 0.666626C13.1223 0.666626 16.6667 4.39759 16.6667 8.99996C16.6667 13.6023 13.1223 17.3333 8.75008 17.3333Z" stroke="#939396" stroke-linecap="round" stroke-linejoin="round"/>
    <path d="M10.8334 6.33329C10.3031 5.90303 9.64125 5.66771 8.95837 5.66663C7.23254 5.66663 5.83337 7.15829 5.83337 8.99996C5.83337 10.8416 7.23254 12.3333 8.95837 12.3333C9.66171 12.3333 10.3109 12.085 10.8334 11.6666" stroke="#939396" stroke-linecap="round" stroke-linejoin="round"/>
    <path d="M8.33337 0.666626C11.9442 0.666626 19.1667 1.49996 19.1667 8.99996C19.1667 16.5 11.9442 17.3333 8.33337 17.3333" stroke="#939396"/>
</svg>
