<svg width="21" height="21" viewBox="0 0 21 21" fill="none" xmlns="http://www.w3.org/2000/svg">
    <g clip-path="url(#clip0_0_1299)">
        <path fill-rule="evenodd" clip-rule="evenodd" d="M8.91624 5.08024C8.99656 4.93161 9.11595 4.80774 9.26152 4.72201C9.40709 4.63627 9.57331 4.59192 9.74224 4.59374L11.5797 4.62174C11.7482 4.62544 11.9125 4.67496 12.0549 4.76499C12.1974 4.85502 12.3126 4.98216 12.3882 5.13274L13.1232 6.60974L14.4217 6.49949C14.588 6.48629 14.7548 6.51817 14.9045 6.59178C15.0541 6.66539 15.1812 6.77799 15.2722 6.91774L16.1997 8.35624C16.2994 8.51115 16.3501 8.69242 16.3454 8.87653C16.3408 9.06064 16.2809 9.2391 16.1735 9.38874L15.491 10.3442L16.2172 11.3032C16.443 11.6007 16.4657 12.0067 16.2732 12.3287L15.3982 13.7952C15.3113 13.9391 15.1869 14.0566 15.0383 14.1352C14.8897 14.2138 14.7226 14.2505 14.5547 14.2415L13.181 14.1575L12.3357 15.8882C12.2592 16.0421 12.1415 16.1717 11.9956 16.2625C11.8498 16.3534 11.6816 16.4019 11.5097 16.4027H9.61624C9.44472 16.4016 9.27687 16.3529 9.13136 16.2621C8.98585 16.1712 8.86837 16.0418 8.792 15.8882L7.9975 14.2625L6.5275 14.3955C6.35804 14.4097 6.18794 14.3771 6.03578 14.3012C5.88363 14.2252 5.75527 14.1089 5.66474 13.965L4.7355 12.4687C4.63694 12.3099 4.58916 12.1248 4.59854 11.9382C4.60792 11.7515 4.67401 11.5721 4.788 11.424L5.628 10.3302L4.95249 9.38699C4.8454 9.23717 4.7858 9.05862 4.78143 8.87451C4.77706 8.6904 4.82813 8.50923 4.92799 8.35449L5.85549 6.91599C5.94641 6.77652 6.07318 6.66409 6.22252 6.5905C6.37186 6.5169 6.53826 6.48487 6.70425 6.49774L8.09899 6.61674L8.91624 5.08024ZM9.96274 5.90974L9.13675 7.46374C9.05148 7.622 8.92206 7.75208 8.76423 7.83814C8.6064 7.9242 8.42696 7.96254 8.24774 7.94849L6.83025 7.82774L6.17575 8.84274L6.86525 9.80524C6.97995 9.96535 7.04016 10.1581 7.03701 10.355C7.03386 10.5519 6.96751 10.7426 6.84775 10.899L5.99374 12.0085L6.65175 13.069L8.14974 12.9325C8.33536 12.9153 8.52181 12.955 8.68435 13.0462C8.84688 13.1375 8.97781 13.2761 9.05974 13.4435L9.863 15.0902H11.263L12.117 13.3455C12.1977 13.1835 12.324 13.0486 12.4804 12.9575C12.6368 12.8663 12.8165 12.823 12.9972 12.8327L14.3937 12.9167L15.0097 11.8842L14.2677 10.9042C14.1497 10.748 14.0847 10.5581 14.0822 10.3623C14.0797 10.1665 14.1398 9.97499 14.2537 9.81574L14.952 8.84274L14.2975 7.82774L12.9675 7.93974C12.7837 7.95541 12.5994 7.91538 12.4387 7.82487C12.2779 7.73435 12.1482 7.59754 12.0662 7.43224L11.319 5.93074L9.96274 5.90974Z" fill="black"/>
        <path d="M17.9935 12.95C17.4626 14.5888 16.4091 16.0083 14.9943 16.991C13.5794 17.9737 11.8814 18.4654 10.1604 18.3907C8.43942 18.3161 6.79037 17.6791 5.46599 16.5776C4.1416 15.476 3.21494 13.9706 2.82801 12.292L4.31726 11.998L1.48226 9.06499L-0.0017395 12.8572L1.56801 12.5492C2.0061 14.5197 3.08095 16.2911 4.62647 17.5896C6.17199 18.8881 8.10214 19.6415 10.1187 19.7333C12.1352 19.8251 14.1258 19.2503 15.7829 18.0976C17.44 16.9449 18.6714 15.2785 19.2868 13.356L17.9935 12.95ZM19.4565 8.50499C19.0182 6.53458 17.9432 4.76335 16.3975 3.46502C14.8519 2.16669 12.9217 1.41352 10.9052 1.32191C8.88869 1.2303 6.89815 1.80533 5.24115 2.95816C3.58415 4.11099 2.35294 5.77744 1.73776 7.69999L2.98551 8.10599C3.51621 6.46718 4.56962 5.04758 5.98431 4.06474C7.399 3.08189 9.09694 2.59001 10.8179 2.66449C12.5389 2.73896 14.188 3.37567 15.5125 4.47705C16.837 5.57843 17.7639 7.08371 18.151 8.76224L16.6618 9.05799L19.4968 11.984L20.9983 8.19699L19.4565 8.50499Z" fill="black"/>
        <path fill-rule="evenodd" clip-rule="evenodd" d="M10.5 9.84375C10.326 9.84375 10.159 9.91289 10.036 10.036C9.91289 10.159 9.84375 10.326 9.84375 10.5C9.84375 10.674 9.91289 10.841 10.036 10.964C10.159 11.0871 10.326 11.1562 10.5 11.1562C10.674 11.1562 10.841 11.0871 10.964 10.964C11.0871 10.841 11.1562 10.674 11.1562 10.5C11.1562 10.326 11.0871 10.159 10.964 10.036C10.841 9.91289 10.674 9.84375 10.5 9.84375ZM8.53125 10.5C8.53125 9.97786 8.73867 9.4771 9.10788 9.10788C9.4771 8.73867 9.97786 8.53125 10.5 8.53125C11.0221 8.53125 11.5229 8.73867 11.8921 9.10788C12.2613 9.4771 12.4688 9.97786 12.4688 10.5C12.4688 11.0221 12.2613 11.5229 11.8921 11.8921C11.5229 12.2613 11.0221 12.4688 10.5 12.4688C9.97786 12.4688 9.4771 12.2613 9.10788 11.8921C8.73867 11.5229 8.53125 11.0221 8.53125 10.5Z" fill="black"/>
    </g>
    <defs>
        <clipPath id="clip0_0_1299">
            <rect width="21" height="21" fill="white"/>
        </clipPath>
    </defs>
</svg>
