<svg width="18" height="17" viewBox="0 0 18 17" fill="none" xmlns="http://www.w3.org/2000/svg">
    <path d="M15.6666 10.6666H2.33329V5.66663H6.56663L4.83329 8.02496L6.18329 8.99996L8.16663 6.29996L8.99996 5.16663L9.83329 6.29996L11.8166 8.99996L13.1666 8.02496L11.4333 5.66663H15.6666M15.6666 14.8333H2.33329V13.1666H15.6666M6.49996 2.33329C6.72097 2.33329 6.93293 2.42109 7.08921 2.57737C7.24549 2.73365 7.33329 2.94561 7.33329 3.16663C7.33329 3.38764 7.24549 3.5996 7.08921 3.75588C6.93293 3.91216 6.72097 3.99996 6.49996 3.99996C6.27895 3.99996 6.06698 3.91216 5.9107 3.75588C5.75442 3.5996 5.66663 3.38764 5.66663 3.16663C5.66663 2.94561 5.75442 2.73365 5.9107 2.57737C6.06698 2.42109 6.27895 2.33329 6.49996 2.33329ZM11.5 2.33329C11.721 2.33329 11.9329 2.42109 12.0892 2.57737C12.2455 2.73365 12.3333 2.94561 12.3333 3.16663C12.3333 3.38764 12.2455 3.5996 12.0892 3.75588C11.9329 3.91216 11.721 3.99996 11.5 3.99996C11.2789 3.99996 11.067 3.91216 10.9107 3.75588C10.7544 3.5996 10.6666 3.38764 10.6666 3.16663C10.6666 2.94561 10.7544 2.73365 10.9107 2.57737C11.067 2.42109 11.2789 2.33329 11.5 2.33329ZM15.6666 3.99996H13.85C13.9416 3.74163 14 3.45829 14 3.16663C14 2.50358 13.7366 1.8677 13.2677 1.39886C12.7989 0.930018 12.163 0.666626 11.5 0.666626C10.625 0.666626 9.86663 1.11663 9.41663 1.79163L8.99996 2.33329L8.58329 1.78329C8.13329 1.11663 7.37496 0.666626 6.49996 0.666626C5.83692 0.666626 5.20103 0.930018 4.73219 1.39886C4.26335 1.8677 3.99996 2.50358 3.99996 3.16663C3.99996 3.45829 4.05829 3.74163 4.14996 3.99996H2.33329C1.40829 3.99996 0.666626 4.74163 0.666626 5.66663V14.8333C0.666626 15.7583 1.40829 16.5 2.33329 16.5H15.6666C16.5916 16.5 17.3333 15.7583 17.3333 14.8333V5.66663C17.3333 4.74163 16.5916 3.99996 15.6666 3.99996Z" fill="#939396"/>
</svg>
