<svg width="16" height="16" viewBox="0 0 16 16" fill="none" xmlns="http://www.w3.org/2000/svg">
    <path d="M9.5 10.25L11.75 8M11.75 8L9.5 5.75M11.75 8H1.25M6.5 5V3.05C6.5 2.81362 6.54656 2.57956 6.63702 2.36117C6.72748 2.14278 6.86006 1.94435 7.02721 1.77721C7.36477 1.43964 7.82261 1.25 8.3 1.25H12.95C13.4274 1.25 13.8852 1.43964 14.2228 1.77721C14.5604 2.11477 14.75 2.57261 14.75 3.05V12.95C14.75 13.4274 14.5604 13.8852 14.2228 14.2228C13.8852 14.5604 13.4274 14.75 12.95 14.75H8.3C7.82261 14.75 7.36477 14.5604 7.02721 14.2228C6.68964 13.8852 6.5 13.4274 6.5 12.95V11" stroke="#0143BD" stroke-width="1.5" stroke-miterlimit="10" stroke-linecap="round" stroke-linejoin="round"/>
</svg>
