<svg width="33" height="33" viewBox="0 0 33 33" fill="none" xmlns="http://www.w3.org/2000/svg">
    <circle cx="16.398" cy="16.398" r="15.869" stroke="#D7D4D4" stroke-width="1.05793"/>
    <path fill-rule="evenodd" clip-rule="evenodd" d="M17.0754 8.77535C17.0754 8.5553 16.9879 8.34428 16.8323 8.18868C16.6768 8.03309 16.4657 7.94568 16.2457 7.94568C16.0256 7.94568 15.8146 8.03309 15.659 8.18868C15.5034 8.34428 15.416 8.5553 15.416 8.77535V9.3976H14.9539C14.0645 9.39754 13.2085 9.73643 12.5602 10.3453C11.9119 10.9541 11.52 11.7871 11.4643 12.6748L11.281 15.6068C11.211 16.7248 10.8357 17.8021 10.1958 18.7214C10.0635 18.9114 9.98274 19.1325 9.96124 19.363C9.93974 19.5935 9.97826 19.8257 10.0731 20.0369C10.1679 20.2481 10.3157 20.4312 10.5022 20.5684C10.6887 20.7055 10.9076 20.7921 11.1374 20.8196L13.9641 21.1581V22.05C13.9641 22.6551 14.2045 23.2355 14.6324 23.6633C15.0602 24.0912 15.6406 24.3316 16.2457 24.3316C16.8508 24.3316 17.4311 24.0912 17.859 23.6633C18.2869 23.2355 18.5273 22.6551 18.5273 22.05V21.1581L21.3539 20.8188C21.5837 20.7912 21.8024 20.7046 21.9888 20.5675C22.1752 20.4304 22.3229 20.2474 22.4177 20.0363C22.5125 19.8252 22.551 19.5932 22.5296 19.3628C22.5083 19.1324 22.4276 18.9114 22.2956 18.7214C21.6557 17.8021 21.2803 16.7248 21.2104 15.6068L21.0271 12.6756C20.9715 11.7878 20.5797 10.9546 19.9314 10.3456C19.2831 9.73655 18.427 9.39755 17.5375 9.3976H17.0754V8.77535ZM14.9539 10.6421C14.3811 10.642 13.8298 10.8603 13.4122 11.2524C12.9946 11.6445 12.7422 12.1811 12.7063 12.7528L12.5238 15.6848C12.4395 17.0297 11.9878 18.3256 11.2179 19.4316C11.2083 19.4453 11.2025 19.4613 11.2009 19.478C11.1994 19.4947 11.2021 19.5115 11.209 19.5267C11.2158 19.542 11.2265 19.5553 11.24 19.5652C11.2535 19.5751 11.2693 19.5814 11.2859 19.5834L14.3864 19.9559C15.6218 20.1036 16.8696 20.1036 18.105 19.9559L21.2054 19.5834C21.2221 19.5814 21.2379 19.5751 21.2514 19.5652C21.2648 19.5553 21.2755 19.542 21.2824 19.5267C21.2892 19.5115 21.292 19.4947 21.2904 19.478C21.2889 19.4613 21.283 19.4453 21.2735 19.4316C20.5039 18.3256 20.0525 17.0296 19.9684 15.6848L19.785 12.7528C19.7492 12.1811 19.4967 11.6445 19.0792 11.2524C18.6616 10.8603 18.1103 10.642 17.5375 10.6421H14.9539ZM16.2457 23.0871C15.6732 23.0871 15.2086 22.6225 15.2086 22.05V21.4278H17.2828V22.05C17.2828 22.6225 16.8182 23.0871 16.2457 23.0871Z" fill="black"/>
    <circle cx="19.5634" cy="11.5972" r="2.65493" fill="#FD0101"/>
</svg>
