<svg width="24" height="24" viewBox="0 0 24 24" fill="none" xmlns="http://www.w3.org/2000/svg">
    <path d="M10 7.02702C10.2572 5.53633 11.064 4.19628 12.2611 3.27151C13.4582 2.34674 14.9586 1.9045 16.4659 2.03212C17.9732 2.15974 19.3779 2.84794 20.4025 3.96081C21.4271 5.07369 21.9971 6.53031 22 8.04302C21.9998 9.46951 21.4951 10.85 20.5751 11.9401C19.6551 13.0303 18.3792 13.76 16.973 14M2 9.00002C2 5.68302 4.683 3.00002 8 3.00002L7.143 4.71402M22 15C22 18.317 19.317 21 16 21L16.857 19.286M8 22C9.5913 22 11.1174 21.3679 12.2426 20.2427C13.3679 19.1174 14 17.5913 14 16C14 14.4087 13.3679 12.8826 12.2426 11.7574C11.1174 10.6322 9.5913 10 8 10C6.4087 10 4.88258 10.6322 3.75736 11.7574C2.63214 12.8826 2 14.4087 2 16C2 17.5913 2.63214 19.1174 3.75736 20.2427C4.88258 21.3679 6.4087 22 8 22Z" stroke="#939396" stroke-width="1.5" stroke-linecap="round" stroke-linejoin="round"/>
</svg>
