<svg width="16" height="16" viewBox="0 0 16 16" fill="none" xmlns="http://www.w3.org/2000/svg">
    <path d="M4.66663 1.75V3H3.41663V3.83333H4.66663V5.08333H5.49996V3.83333H6.74996V3H5.49996V1.75H4.66663Z" fill="#939396"/>
    <path fill-rule="evenodd" clip-rule="evenodd" d="M3.41667 0.5C3.08515 0.5 2.7672 0.631696 2.53278 0.866117C2.29836 1.10054 2.16667 1.41848 2.16667 1.75V2.16667H0.5V10.0833H9.66667V2.16667H8V1.75C8 1.41848 7.8683 1.10054 7.63388 0.866117C7.39946 0.631696 7.08152 0.5 6.75 0.5H3.41667ZM6.75 6.33333C7.08152 6.33333 7.39946 6.20164 7.63388 5.96722C7.8683 5.7328 8 5.41485 8 5.08333V4.66667H8.83333V9.25H6.75V6.75H3.41667V9.25H1.33333V4.66667H2.16667V5.08333C2.16667 5.41485 2.29836 5.7328 2.53278 5.96722C2.7672 6.20164 3.08515 6.33333 3.41667 6.33333H6.75ZM3 1.75C3 1.63949 3.0439 1.53351 3.12204 1.45537C3.20018 1.37723 3.30616 1.33333 3.41667 1.33333H6.75C6.86051 1.33333 6.96649 1.37723 7.04463 1.45537C7.12277 1.53351 7.16667 1.63949 7.16667 1.75V5.08333C7.16667 5.19384 7.12277 5.29982 7.04463 5.37796C6.96649 5.4561 6.86051 5.5 6.75 5.5H3.41667C3.30616 5.5 3.20018 5.4561 3.12204 5.37796C3.0439 5.29982 3 5.19384 3 5.08333V1.75ZM1.33333 3H2.16667V3.83333H1.33333V3ZM8.83333 3.83333H8V3H8.83333V3.83333ZM5.91667 7.58333V9.25H4.25V7.58333H5.91667ZM10.5 9.66667C10.5 9.22464 10.6756 8.80072 10.9882 8.48816C11.3007 8.17559 11.7246 8 12.1667 8C12.6087 8 13.0326 8.17559 13.3452 8.48816C13.6577 8.80072 13.8333 9.22464 13.8333 9.66667C13.8333 10.1087 13.6577 10.5326 13.3452 10.8452C13.0326 11.1577 12.6087 11.3333 12.1667 11.3333C11.7246 11.3333 11.3007 11.1577 10.9882 10.8452C10.6756 10.5326 10.5 10.1087 10.5 9.66667ZM12.1667 8.83333C11.9457 8.83333 11.7337 8.92113 11.5774 9.07741C11.4211 9.23369 11.3333 9.44565 11.3333 9.66667C11.3333 9.88768 11.4211 10.0996 11.5774 10.2559C11.7337 10.4122 11.9457 10.5 12.1667 10.5C12.3877 10.5 12.5996 10.4122 12.7559 10.2559C12.9122 10.0996 13 9.88768 13 9.66667C13 9.44565 12.9122 9.23369 12.7559 9.07741C12.5996 8.92113 12.3877 8.83333 12.1667 8.83333ZM12.1667 11.75C11.0542 11.75 8.83333 12.3592 8.83333 13.5683V14.6667H5.08333C4.77958 14.6667 4.5825 14.5571 4.45708 14.4158C4.325 14.2671 4.25 14.0571 4.25 13.8333V12.3392L5.62208 13.7113L6.21125 13.1221L3.83333 10.7442L1.45542 13.1221L2.04458 13.7113L3.41667 12.3392V13.8333C3.41667 14.2346 3.55 14.6496 3.83458 14.9696C4.12583 15.2971 4.55375 15.5 5.08333 15.5H15.5V13.5683C15.5 12.3592 13.2792 11.75 12.1667 11.75ZM9.78917 13.3612C9.67125 13.48 9.66667 13.545 9.66667 13.5683V14.6667H14.6667V13.5683C14.6667 13.545 14.6625 13.48 14.5442 13.3612C14.4192 13.235 14.2087 13.0971 13.9167 12.9696C13.3283 12.7117 12.6083 12.5833 12.1667 12.5833C11.725 12.5833 11.005 12.7125 10.4167 12.9692C10.1246 13.0967 9.91458 13.235 9.78917 13.3612Z" fill="#939396"/>
</svg>
