<svg width="19" height="19" viewBox="0 0 19 19" fill="none" xmlns="http://www.w3.org/2000/svg">
    <path d="M18.125 18.125L13.9629 13.9629M13.9629 13.9629C14.6748 13.251 15.2396 12.4058 15.6249 11.4756C16.0102 10.5454 16.2085 9.54845 16.2085 8.54162C16.2085 7.53479 16.0102 6.53783 15.6249 5.60764C15.2396 4.67745 14.6748 3.83226 13.9629 3.12033C13.251 2.40839 12.4058 1.84366 11.4756 1.45836C10.5454 1.07307 9.54845 0.874756 8.54162 0.874756C7.53479 0.874756 6.53783 1.07307 5.60764 1.45836C4.67745 1.84366 3.83226 2.40839 3.12033 3.12033C1.68251 4.55814 0.874756 6.50824 0.874756 8.54162C0.874756 10.575 1.68251 12.5251 3.12033 13.9629C4.55814 15.4007 6.50824 16.2085 8.54162 16.2085C10.575 16.2085 12.5251 15.4007 13.9629 13.9629Z" stroke="#939396" stroke-linecap="round" stroke-linejoin="round"/>
</svg>
