<svg width="20" height="18" viewBox="0 0 20 18" fill="none" xmlns="http://www.w3.org/2000/svg">
    <path d="M15.6283 7.76495C15.6283 8.28578 13.7633 8.72161 11.2633 8.83161L11.265 8.83245C10.8487 8.85521 10.4318 8.86438 10.015 8.85995C9.36582 8.85995 8.90665 8.84078 8.74499 8.83328C6.23999 8.72245 4.36999 8.28661 4.36999 7.76495C4.36999 7.24328 6.23999 6.80661 8.74499 6.69495V8.39828C8.90832 8.41078 9.37749 8.43828 10.0258 8.43828C10.8033 8.43828 11.1925 8.40495 11.2633 8.39911V6.69661C13.7633 6.80745 15.6283 7.24411 15.6283 7.76495ZM19.9533 8.21995L10.1033 17.6583C10.0754 17.685 10.0382 17.6999 9.99957 17.6999C9.96091 17.6999 9.92374 17.685 9.89582 17.6583L0.0466533 8.21995C0.0237639 8.19809 0.00837438 8.16955 0.00268654 8.13842C-0.00300129 8.10729 0.00130406 8.07515 0.0149866 8.04661L3.66165 0.386615C3.67382 0.360899 3.69306 0.339174 3.71711 0.323976C3.74116 0.308778 3.76904 0.300734 3.79749 0.300781H16.2042C16.2322 0.301203 16.2595 0.309468 16.2831 0.324639C16.3067 0.33981 16.3255 0.36128 16.3375 0.386615L19.985 8.04661C19.9987 8.07515 20.003 8.10729 19.9973 8.13842C19.9916 8.16955 19.9762 8.19809 19.9533 8.21995ZM16.2217 7.88328C16.2217 7.21161 14.095 6.64995 11.2658 6.51911V4.99578H14.7542V2.67078H5.25665V4.99578H8.74415V6.51995C5.90915 6.64995 3.77749 7.21161 3.77749 7.88411C3.77749 8.55745 5.90915 9.11745 8.74415 9.24911V14.1341H11.265V9.24745C14.0933 9.11661 16.2217 8.55578 16.2217 7.88328Z" fill="#83C6A3"/>
</svg>
