<svg width="20" height="16" viewBox="0 0 20 16" fill="none" xmlns="http://www.w3.org/2000/svg">
    <path d="M15.8333 7.28496C15.5567 7.24527 15.2787 7.21552 15 7.19579M4.99996 8.80413C4.71551 8.78413 4.43774 8.7544 4.16663 8.71496M12.0833 7.99996C12.0833 8.55249 11.8638 9.0824 11.4731 9.4731C11.0824 9.8638 10.5525 10.0833 9.99996 10.0833C9.44743 10.0833 8.91752 9.8638 8.52682 9.4731C8.13612 9.0824 7.91663 8.55249 7.91663 7.99996C7.91663 7.44742 8.13612 6.91752 8.52682 6.52682C8.91752 6.13612 9.44743 5.91663 9.99996 5.91663C10.5525 5.91663 11.0824 6.13612 11.4731 6.52682C11.8638 6.91752 12.0833 7.44742 12.0833 7.99996Z" stroke="#939396" stroke-width="1.5" stroke-linecap="round" stroke-linejoin="round"/>
    <path d="M9.99996 14.25C8.88996 14.7683 7.43079 15.0833 5.83329 15.0833C4.94496 15.0833 4.09996 14.9858 3.33329 14.8108C2.08329 14.5241 1.66663 13.7716 1.66663 12.4883V3.51163C1.66663 2.69079 2.53329 2.12746 3.33329 2.31079C4.09996 2.48579 4.94496 2.58329 5.83329 2.58329C7.43079 2.58329 8.88996 2.26829 9.99996 1.74996C11.11 1.23163 12.5691 0.916626 14.1666 0.916626C15.055 0.916626 15.9 1.01413 16.6666 1.18913C17.985 1.49163 18.3333 2.26663 18.3333 3.51163V12.4883C18.3333 13.3091 17.4666 13.8725 16.6666 13.6891C15.9 13.5141 15.055 13.4166 14.1666 13.4166C12.5691 13.4166 11.11 13.7316 9.99996 14.25Z" stroke="#939396" stroke-width="1.5" stroke-linecap="round" stroke-linejoin="round"/>
</svg>
