<svg width="20" height="12" viewBox="0 0 20 12" fill="none" xmlns="http://www.w3.org/2000/svg">
    <path d="M5.03249 11.5933C3.5986 11.1544 2.54555 10.3872 1.87332 9.29163C1.2011 8.19607 0.86499 7.09885 0.86499 5.99996C0.86499 4.90107 1.2011 3.80385 1.87332 2.70829C2.54555 1.61274 3.59832 0.845793 5.03166 0.407459V1.29163C4.0461 1.62496 3.24416 2.22218 2.62582 3.08329C2.00749 3.9444 1.6986 4.91663 1.69916 5.99996C1.69971 7.08329 2.0086 8.05552 2.62582 8.91663C3.24305 9.77774 4.04527 10.375 5.03249 10.7083V11.5933ZM11.6992 11.8333C10.0758 11.8333 8.69777 11.2666 7.56499 10.1333C6.43221 8.99996 5.86555 7.62218 5.86499 5.99996C5.86443 4.37774 6.4311 2.99996 7.56499 1.86663C8.69888 0.733293 10.0767 0.166626 11.6983 0.166626C12.455 0.166626 13.1744 0.302737 13.8567 0.574959C14.54 0.847181 15.1497 1.23051 15.6858 1.72496L15.0967 2.31413C14.6489 1.89857 14.1389 1.57579 13.5667 1.34579C12.9944 1.11524 12.3717 0.999959 11.6983 0.999959C10.3094 0.999959 9.12888 1.48607 8.15666 2.45829C7.18443 3.43052 6.69832 4.61107 6.69832 5.99996C6.69832 7.38885 7.18443 8.5694 8.15666 9.54163C9.12888 10.5138 10.3094 11 11.6983 11C12.3717 11 12.9944 10.885 13.5667 10.655C14.1389 10.4244 14.6486 10.1013 15.0958 9.68579L15.6858 10.2758C15.1497 10.7691 14.5403 11.1519 13.8575 11.4241C13.1747 11.6969 12.4553 11.8333 11.6992 11.8333ZM16.3783 8.75663L15.7883 8.16663L17.5383 6.41663H10.9617V5.58329H17.5383L15.7883 3.83329L16.3783 3.24329L19.135 5.99996L16.3783 8.75663Z" fill="#939396"/>
</svg>
